<svg width="34" height="34" viewBox="0 0 34 34" fill="none" xmlns="http://www.w3.org/2000/svg">
  <path fill-rule="evenodd" clip-rule="evenodd"
    d="M16.0484 15.6873C17.3005 16.0204 20.0152 16.7426 20.4889 14.843C20.9742 12.8924 18.3147 12.3084 17.0213 12.0243C16.8788 11.9931 16.7529 11.9654 16.6496 11.94L15.7394 15.6067C15.8277 15.6286 15.9317 15.6562 16.0484 15.6873ZM14.6314 21.5904C16.1315 21.9865 19.401 22.8497 19.9189 20.759C20.4542 18.627 17.288 17.9116 15.7342 17.5605C15.5573 17.5205 15.4013 17.4853 15.274 17.4532L14.2697 21.4966C14.3734 21.5223 14.4951 21.5544 14.6314 21.5904ZM24.4944 14.5763C24.25 16.2339 23.3361 17.0362 22.114 17.3177C23.7877 18.189 24.6378 19.5279 23.8302 21.8389C22.8207 24.7185 20.4297 24.9629 17.247 24.3572L16.4766 27.4546L14.6116 26.987L15.3714 23.9375C14.8879 23.8153 14.3938 23.6873 13.889 23.5497L13.1239 26.6151L11.2589 26.1529L12.0294 23.0503C11.5937 22.9387 11.1527 22.8218 10.701 22.7102L8.27287 22.1046L9.19738 19.9683C9.19738 19.9683 10.5735 20.3354 10.5576 20.3089C11.0836 20.4364 11.3174 20.091 11.413 19.8626L12.6298 14.9748C12.6988 14.9907 12.7626 15.0067 12.8264 15.0226C12.752 14.9907 12.6882 14.9748 12.6351 14.9589L13.5065 11.4684C13.5277 11.0699 13.3896 10.5705 12.6351 10.3846C12.6351 10.358 11.2802 10.0445 11.2802 10.0445L11.7743 8.05224L14.3513 8.69509L14.346 8.70571C14.7338 8.80134 15.1323 8.89166 15.5362 8.98729L16.3013 5.92181L18.1662 6.38934L17.4171 9.39106C17.9165 9.50794 18.4213 9.61951 18.9101 9.74171L19.654 6.76123L21.5189 7.22344L20.7591 10.2889C23.1129 11.1018 24.8344 12.3184 24.4944 14.5763ZM21.1098 0.508065C12.0029 -1.7605 2.77896 3.78074 0.510182 12.8869C-1.76391 21.9983 3.77786 31.2213 12.8849 33.4899C21.9972 35.7638 31.2211 30.2225 33.4898 21.1111C35.7639 12.0049 30.2222 2.77663 21.1098 0.508065Z"
    fill="#347AF0" />
</svg>